<svg xmlns="http://www.w3.org/2000/svg" width="30.604" height="27.393" viewBox="0 0 30.604 27.393">
  <path id="heart" d="M26.8,2.534A7.826,7.826,0,0,0,20.974,0,7.322,7.322,0,0,0,16.4,1.579a9.356,9.356,0,0,0-1.849,1.93A9.351,9.351,0,0,0,12.7,1.579,7.321,7.321,0,0,0,8.131,0,7.827,7.827,0,0,0,2.309,2.534,9.1,9.1,0,0,0,0,8.747a10.833,10.833,0,0,0,2.887,7.091,61.553,61.553,0,0,0,7.226,6.782c1,.853,2.136,1.821,3.314,2.851a1.709,1.709,0,0,0,2.25,0c1.178-1.031,2.314-2,3.316-2.852a61.519,61.519,0,0,0,7.225-6.782A10.832,10.832,0,0,0,29.1,8.746,9.1,9.1,0,0,0,26.8,2.534Zm0,0" transform="translate(0.75 0.75)" fill="none" stroke="#fff" stroke-width="1.5"/>
</svg>
