<svg xmlns="http://www.w3.org/2000/svg" width="31.993" height="22.617" viewBox="0 0 31.993 22.617">
  <g id="list-text" transform="translate(0.75 0.9)">
    <g id="Group_20" data-name="Group 20" transform="translate(5.726 0)">
      <g id="Group_19" data-name="Group 19">
        <path id="Path_25" data-name="Path 25" d="M117.137,80H98.085a1.905,1.905,0,1,0,0,3.81h19.051a1.905,1.905,0,1,0,0-3.81Z" transform="translate(-96.18 -80)" fill="none" stroke="#fff" stroke-width="1.5"/>
      </g>
    </g>
    <g id="Group_22" data-name="Group 22" transform="translate(0 0.008)">
      <g id="Group_21" data-name="Group 21">
        <path id="Path_26" data-name="Path 26" d="M3.822,82.032a1.905,1.905,0,0,0-3.81,0,1.622,1.622,0,0,0,0,.372,1.717,1.717,0,0,0,.1.362,2.211,2.211,0,0,0,.181.324,1.743,1.743,0,0,0,.238.3,1.686,1.686,0,0,0,.286.229,1.553,1.553,0,0,0,.324.181,1.572,1.572,0,0,0,.4.143,1.67,1.67,0,0,0,.372,0,1.905,1.905,0,0,0,1.343-.552,1.742,1.742,0,0,0,.238-.3,2.211,2.211,0,0,0,.181-.324,1.769,1.769,0,0,0,.143-.362A1.622,1.622,0,0,0,3.822,82.032Z" transform="translate(-0.001 -80.135)" fill="none" stroke="#fff" stroke-width="1.5"/>
      </g>
    </g>
    <g id="Group_24" data-name="Group 24" transform="translate(0.011 8.581)">
      <g id="Group_23" data-name="Group 23">
        <path id="Path_27" data-name="Path 27" d="M3.99,226.032a1.629,1.629,0,0,0,0-.372,1.544,1.544,0,0,0-.143-.352,1.9,1.9,0,0,0-.181-.333,1.372,1.372,0,0,0-.238-.286A1.905,1.905,0,0,0,.18,226.032a1.9,1.9,0,0,0,.314,1.057,1.831,1.831,0,0,0,.248.286,1.391,1.391,0,0,0,.286.238,1.546,1.546,0,0,0,.324.181,1.619,1.619,0,0,0,.362.1,1.581,1.581,0,0,0,.372.038,1.621,1.621,0,0,0,.372,0,1.544,1.544,0,0,0,.352-.1,1.591,1.591,0,0,0,.333-.181,1.391,1.391,0,0,0,.286-.238,1.391,1.391,0,0,0,.238-.286,1.532,1.532,0,0,0,.181-.324,1.611,1.611,0,0,0,.143-.4A1.576,1.576,0,0,0,3.99,226.032Z" transform="translate(-0.18 -224.135)" fill="none" stroke="#fff" stroke-width="1.5"/>
      </g>
    </g>
    <g id="Group_26" data-name="Group 26" transform="translate(0.011 17.154)">
      <g id="Group_25" data-name="Group 25">
        <path id="Path_28" data-name="Path 28" d="M3.988,370.032a1.635,1.635,0,0,0,0-.371,1.621,1.621,0,0,0-.143-.362,2.214,2.214,0,0,0-.181-.324,1.391,1.391,0,0,0-.238-.286,1.905,1.905,0,0,0-2.686,0,1.391,1.391,0,0,0-.238.286,2.214,2.214,0,0,0-.181.324,1.561,1.561,0,0,0-.1.362,1.637,1.637,0,0,0-.038.371,1.905,1.905,0,0,0,.562,1.343,1.392,1.392,0,0,0,.286.238,1.552,1.552,0,0,0,.324.181,1.621,1.621,0,0,0,.362.1,1.581,1.581,0,0,0,.372.038,1.623,1.623,0,0,0,.372,0,1.544,1.544,0,0,0,.352-.1,1.588,1.588,0,0,0,.333-.181,1.39,1.39,0,0,0,.286-.238,1.392,1.392,0,0,0,.238-.286,1.525,1.525,0,0,0,.181-.324,1.617,1.617,0,0,0,.143-.4A1.576,1.576,0,0,0,3.988,370.032Z" transform="translate(-0.178 -368.135)" fill="none" stroke="#fff" stroke-width="1.5"/>
      </g>
    </g>
    <g id="Group_28" data-name="Group 28" transform="translate(5.726 8.573)">
      <g id="Group_27" data-name="Group 27">
        <path id="Path_29" data-name="Path 29" d="M119.042,224H98.085a1.905,1.905,0,0,0,0,3.81h20.957a1.905,1.905,0,0,0,0-3.81Z" transform="translate(-96.18 -224)" fill="none" stroke="#fff" stroke-width="1.5"/>
      </g>
    </g>
    <g id="Group_30" data-name="Group 30" transform="translate(5.726 17.146)">
      <g id="Group_29" data-name="Group 29">
        <path id="Path_30" data-name="Path 30" d="M110.469,368H98.085a1.905,1.905,0,1,0,0,3.81h12.383a1.905,1.905,0,1,0,0-3.81Z" transform="translate(-96.18 -368)" fill="none" stroke="#fff" stroke-width="1.5"/>
      </g>
    </g>
  </g>
</svg>
