<svg xmlns="http://www.w3.org/2000/svg" width="29.05" height="28.29" viewBox="0 0 29.05 28.29">
  <g id="shopping-cart" transform="translate(0.5 0.5)">
    <g id="Group_3" data-name="Group 3" transform="translate(0 0)">
      <g id="Group_2" data-name="Group 2">
        <path id="Path_3" data-name="Path 3" d="M99.58,350.322a2.927,2.927,0,1,0,2.927,2.927A2.927,2.927,0,0,0,99.58,350.322Zm0,4.554a1.626,1.626,0,1,1,1.626-1.626A1.626,1.626,0,0,1,99.58,354.876Z" transform="translate(-90.635 -328.887)" fill="#fba919" stroke="#fba919" stroke-width="1"/>
        <path id="Path_4" data-name="Path 4" d="M298.111,350.322a2.927,2.927,0,1,0,2.927,2.927A2.927,2.927,0,0,0,298.111,350.322Zm0,4.554a1.626,1.626,0,1,1,1.626-1.626A1.626,1.626,0,0,1,298.111,354.876Z" transform="translate(-276.806 -328.887)" fill="#fba919" stroke="#fba919" stroke-width="1"/>
        <path id="Path_5" data-name="Path 5" d="M27.908,10.387a.813.813,0,0,0-.52-.26L6.213,9.834,5.627,8.045a2.993,2.993,0,0,0-2.8-2.017H.651a.651.651,0,0,0,0,1.3H2.83A1.692,1.692,0,0,1,4.391,8.468L8.522,20.925l-.325.748A3.123,3.123,0,0,0,8.49,24.5a3.025,3.025,0,0,0,2.44,1.366H23.582a.651.651,0,0,0,0-1.3H10.929a1.659,1.659,0,0,1-1.366-.781A1.789,1.789,0,0,1,9.4,22.227l.26-.585L23.355,20.21a3.578,3.578,0,0,0,3.09-2.732l1.561-6.538A.553.553,0,0,0,27.908,10.387Zm-2.732,6.8a2.212,2.212,0,0,1-1.984,1.724l-13.531,1.4L6.636,11.135l19.939.293Z" transform="translate(0 -6.028)" fill="#fba919" stroke="#fba919" stroke-width="1"/>
      </g>
    </g>
  </g>
</svg>
