<svg xmlns="http://www.w3.org/2000/svg" width="23.391" height="22.472" viewBox="0 0 23.391 22.472">
  <path id="star_3_" data-name="star (3)" d="M21.794,8.409a1.16,1.16,0,0,0-1-.8l-6.308-.573L11.995,1.2a1.162,1.162,0,0,0-2.137,0L7.365,7.038l-6.309.573A1.163,1.163,0,0,0,.4,9.643l4.768,4.181L3.758,20.017a1.161,1.161,0,0,0,1.728,1.256l5.439-3.252,5.438,3.252a1.162,1.162,0,0,0,1.729-1.256l-1.406-6.192,4.768-4.181a1.163,1.163,0,0,0,.339-1.235ZM11.03,17.957" transform="translate(0.77 0.254)" fill="none" stroke="#464746" stroke-width="1.5"/>
</svg>
